<?xml version="1.0" encoding="UTF-8"?>
<svg version="1.1" xmlns="http://www.w3.org/2000/svg" width="45" height="45">
<path d="M0 0 C2.51084213 2.38040877 4.20239178 5.06390658 6 8 C6.55558594 8.67933594 7.11117188 9.35867188 7.68359375 10.05859375 C9 12 9 12 8.6875 15.25 C8.3471875 16.61125 8.3471875 16.61125 8 18 C6.68 18.33 5.36 18.66 4 19 C3.896875 19.598125 3.79375 20.19625 3.6875 20.8125 C2.89363064 23.33844795 2.04427591 24.34885407 0 26 C-0.99 26.33 -1.98 26.66 -3 27 C-0.36 27.99 2.28 28.98 5 30 C5.0825 28.9275 5.165 27.855 5.25 26.75 C6 23 6 23 7.625 20.5625 C10.97614728 18.35779784 13.06249016 18.44736704 17 19 C19.9375 20.5 19.9375 20.5 22 23 C22.59637357 25.77171714 22.55201558 28.22267159 22 31 C20.5 33.1875 20.5 33.1875 19 35 C18.95834635 36.66614608 18.95834635 38.33385392 19 40 C18 42.3125 18 42.3125 17 44 C3.66666667 44 -9.66666667 44 -23 44 C-23.05754527 42.39625465 -23.09866992 40.79191419 -23.1328125 39.1875 C-23.16979248 37.84751953 -23.16979248 37.84751953 -23.20751953 36.48046875 C-23 34 -23 34 -20.875 31 C-17.94535862 28.9619886 -15.44537539 27.8813751 -12 27 C-12.5053125 26.59007813 -13.010625 26.18015625 -13.53125 25.7578125 C-14.1809375 25.21898438 -14.830625 24.68015625 -15.5 24.125 C-16.1496875 23.59132813 -16.799375 23.05765625 -17.46875 22.5078125 C-17.9740625 22.01023437 -18.479375 21.51265625 -19 21 C-19 20.34 -19 19.68 -19 19 C-20.32 18.67 -21.64 18.34 -23 18 C-23.57341412 12.3805416 -22.5593358 9.63595845 -19.2890625 5.28515625 C-18 4 -18 4 -16 4 C-15.67 2.68 -15.34 1.36 -15 0 C-9.98293828 -1.15778347 -4.91984471 -1.74575135 0 0 Z M-8 1 C-7 3 -7 3 -7 3 Z M-5 3 C-5 3.66 -5 4.32 -5 5 C-6.65 4.67 -8.3 4.34 -10 4 C-10 4.66 -10 5.32 -10 6 C-10.99 6.495 -10.99 6.495 -12 7 C-8.7 7 -5.4 7 -2 7 C-2.66 6.67 -3.32 6.34 -4 6 C-4.33 5.01 -4.66 4.02 -5 3 Z M-16 6 C-16.33 6.66 -16.66 7.32 -17 8 C-16.01 7.67 -15.02 7.34 -14 7 C-14.66 6.67 -15.32 6.34 -16 6 Z M0 6 C-0.33 6.66 -0.66 7.32 -1 8 C0.32 7.67 1.64 7.34 3 7 C2.01 6.67 1.02 6.34 0 6 Z M-12 9 C-12 9.33 -12 9.66 -12 10 C-8.7 10 -5.4 10 -2 10 C-2 9.67 -2 9.34 -2 9 C-5.3 9 -8.6 9 -12 9 Z M-17 14 C-16.83150611 18.38084107 -16.63330776 20.38213877 -13.4375 23.5 C-9.18961962 25.35362053 -6.37729747 25.44665481 -2 24 C1.20835903 21.77882836 1.86932696 20.56624985 2.75 16.75 C2.8325 15.8425 2.915 14.935 3 14 C-4.35160464 11.64748651 -9.64839536 11.64748651 -17 14 Z M9.8125 22.0625 C7.64522695 23.99796608 7.64522695 23.99796608 7.5625 27.5625 C7.706875 28.696875 7.85125 29.83125 8 31 C9.485 31.99 9.485 31.99 11 33 C10.67 31.02 10.34 29.04 10 27 C10.78375 27.185625 11.5675 27.37125 12.375 27.5625 C14.97089775 28.25962266 14.97089775 28.25962266 17 27 C17 28.98 17 30.96 17 33 C18.70735301 31.96431405 18.70735301 31.96431405 20 30 C20.08333333 26.41666667 20.08333333 26.41666667 19 23 C15.95829542 20.66802649 13.31205251 20.36271735 9.8125 22.0625 Z M-8 27 C-8 28.98 -8 30.96 -8 33 C-8.99 33 -9.98 33 -11 33 C-11 33.99 -11 34.98 -11 36 C-8.36 36 -5.72 36 -3 36 C-3 34.35 -3 32.7 -3 31 C-3.33 31.66 -3.66 32.32 -4 33 C-4.66 33 -5.32 33 -6 33 C-6 31.02 -6 29.04 -6 27 C-6.66 27 -7.32 27 -8 27 Z M13 31 C12.67 32.65 12.34 34.3 12 36 C13.32 35.67 14.64 35.34 16 35 C15.34 34.67 14.68 34.34 14 34 C13.67 33.01 13.34 32.02 13 31 Z M-18 32 C-20.41406917 34.51063194 -20.98333433 35.71112844 -21.1875 39.25 C-21.0946875 40.61125 -21.0946875 40.61125 -21 42 C-19.68 42 -18.36 42 -17 42 C-17 38.7 -17 35.4 -17 32 C-17.33 32 -17.66 32 -18 32 Z M2 32 C2 35.3 2 38.6 2 42 C3.65 42 5.3 42 7 42 C6.81314911 38.60465748 6.81314911 38.60465748 6 35 C4.68 34.01 3.36 33.02 2 32 Z M8 34 C8.33 34.99 8.66 35.98 9 37 C9 36.01 9 35.02 9 34 C8.67 34 8.34 34 8 34 Z M-1 31 C-1 33.31 -1 35.62 -1 38 C-2.79158489 38.02696365 -4.58328473 38.04637917 -6.375 38.0625 C-7.37273438 38.07410156 -8.37046875 38.08570313 -9.3984375 38.09765625 C-12 38 -12 38 -14 37 C-14 38.65 -14 40.3 -14 42 C-9.38 42 -4.76 42 0 42 C0 38.37 0 34.74 0 31 C-0.33 31 -0.66 31 -1 31 Z M11 38 C11 38.33 11 38.66 11 39 C12.65 39 14.3 39 16 39 C16 38.67 16 38.34 16 38 C14.35 38 12.7 38 11 38 Z " fill="#2F0470" transform="translate(23,1)"/>
</svg>
